<svg width="24" height="24" viewBox="0 0 24 24" fill="none" xmlns="http://www.w3.org/2000/svg">
<g clip-path="url(#clip0_12_64)">
<path fill-rule="evenodd" clip-rule="evenodd" d="M17.7273 20.4993C17.6229 19.8812 17.0767 16.8729 15.7319 13.1803C19.0411 12.6512 21.9072 13.5585 22.1189 13.6276C21.6631 16.4835 20.0275 18.9457 17.7273 20.4993ZM12.0007 22.2489C9.51984 22.2489 7.24502 21.367 5.47116 19.8996C5.60663 20.0096 5.70117 20.0788 5.70117 20.0788C5.70117 20.0788 7.66555 15.7949 13.7435 13.677C13.7661 13.6685 13.7901 13.6629 13.8127 13.6558C15.2549 17.4021 15.849 20.5402 16.0014 21.4362C14.7723 21.9583 13.4189 22.2489 12.0007 22.2489ZM1.75128 11.9993C1.75128 11.8906 1.75693 11.7834 1.75976 11.6762C1.9418 11.6804 7.00512 11.7947 12.2815 10.2158C12.5751 10.79 12.8559 11.3756 13.1127 11.9584C12.9772 11.9951 12.8432 12.036 12.7091 12.0811C7.17868 13.8675 4.37326 18.8427 4.37326 18.8427C4.37326 18.8427 4.37749 18.847 4.37749 18.8484C2.74476 17.0324 1.75128 14.6323 1.75128 11.9993ZM7.62744 2.73314C7.76433 2.91516 9.65957 5.48462 11.4334 8.63684C6.51263 9.94485 2.24096 9.89264 1.97142 9.88841C2.63609 6.71362 4.76838 4.08208 7.62744 2.73314ZM9.54524 2.05021C9.54524 2.05162 9.54384 2.05303 9.54384 2.05303C9.54384 2.05303 9.53114 2.05585 9.51279 2.05867C9.52408 2.05585 9.53395 2.05444 9.54524 2.05021ZM18.7688 4.31066C18.7434 4.34876 17.2842 6.57111 13.4147 8.02023C11.6634 4.80169 9.73858 2.24493 9.58476 2.04175C10.3595 1.85408 11.1681 1.75249 12.0007 1.75249C14.5945 1.75249 16.9639 2.72044 18.7688 4.31066ZM22.2459 11.8977C22.0977 11.8652 18.629 11.1188 15.1081 11.5619C15.0348 11.3869 14.9628 11.2105 14.8866 11.0342C14.6735 10.5318 14.4435 10.0352 14.205 9.54694C18.2522 7.89464 19.8949 5.5199 19.9146 5.49168C21.3512 7.23711 22.2219 9.46652 22.2459 11.8977ZM23.7573 9.58505C23.5992 8.81463 23.3621 8.05409 23.0559 7.32883C22.7567 6.61768 22.3828 5.93192 21.9495 5.29132C21.5219 4.65636 21.0281 4.05808 20.4862 3.51625C19.9429 2.97301 19.3459 2.48057 18.7095 2.05162C18.0688 1.61702 17.383 1.24593 16.6717 0.943972C15.9464 0.639193 15.1871 0.402144 14.4166 0.245521C13.6264 0.0832539 12.8135 0 12.0007 0C11.1864 0 10.3736 0.0832539 9.58336 0.245521C8.81285 0.402144 8.05361 0.639193 7.32826 0.943972C6.61703 1.24593 5.93119 1.61702 5.2891 2.05162C4.65407 2.48057 4.05715 2.97301 3.51384 3.51625C2.97195 4.05808 2.47946 4.65636 2.05046 5.29132C1.61723 5.93192 1.24326 6.61768 0.944092 7.32883C0.636454 8.05409 0.400771 8.81463 0.242718 9.58505C0.0818436 10.3738 0 11.1865 0 11.9993C0 12.8149 0.0818436 13.6276 0.242718 14.4178C0.400771 15.1882 0.636454 15.9473 0.944092 16.6712C1.24326 17.3823 1.61723 18.0709 2.05046 18.7115C2.47946 19.3465 2.97195 19.9419 3.51384 20.4866C4.05715 21.0284 4.65407 21.5194 5.2891 21.9498C5.93119 22.383 6.61703 22.7555 7.32826 23.056C8.05361 23.3636 8.81285 23.5979 9.58336 23.7545C10.3736 23.9182 11.1864 24 12.0007 24C12.8135 24 13.6264 23.9182 14.4166 23.7545C15.1871 23.5979 15.9464 23.3636 16.6717 23.056C17.383 22.7555 18.0688 22.383 18.7095 21.9498C19.3459 21.5194 19.9429 21.0284 20.4862 20.4866C21.0281 19.9419 21.5219 19.3465 21.9495 18.7115C22.3828 18.0709 22.7567 17.3823 23.0559 16.6712C23.3621 15.9473 23.5992 15.1882 23.7573 14.4178C23.9182 13.6276 24 12.8149 24 11.9993C24 11.1865 23.9182 10.3738 23.7573 9.58505Z" fill="white"/>
</g>
<defs>
<clipPath id="clip0_12_64">
<rect width="24" height="24" fill="white"/>
</clipPath>
</defs>
</svg>
