<svg width="39" height="24" viewBox="0 0 39 24" fill="none" xmlns="http://www.w3.org/2000/svg">
<path fill-rule="evenodd" clip-rule="evenodd" d="M24.9374 4.00482H35.1064V1.09142H24.9374V4.00482ZM27.3465 10.3618C26.6985 11.0211 26.2899 11.9142 26.1228 13.0413H34.0317C33.9482 11.8385 33.5373 10.9297 32.8103 10.3038C32.0743 9.68241 31.1689 9.3728 30.0851 9.3728C28.9111 9.3728 27.9945 9.70246 27.3465 10.3618ZM34.2101 6.45049C35.4361 6.98951 36.4453 7.84483 37.24 9.01198C37.9648 10.041 38.4299 11.2349 38.6421 12.5914C38.7663 13.3843 38.816 14.5336 38.7956 16.0282H26.0099C26.0867 17.7633 26.6917 18.9817 27.8477 19.6789C28.5476 20.1132 29.3897 20.3315 30.3787 20.3315C31.4195 20.3315 32.2707 20.0665 32.9232 19.5386C33.2822 19.2512 33.5982 18.8548 33.8692 18.3469H38.554C38.4299 19.3715 37.8609 20.4161 36.8539 21.4764C35.2825 23.1581 33.0812 24 30.2522 24C27.9154 24 25.8541 23.2917 24.0727 21.8706C22.2823 20.4518 21.3928 18.1398 21.3928 14.9412C21.3928 11.941 22.1988 9.6401 23.8086 8.03861C25.4229 6.44158 27.5113 5.6375 30.0829 5.6375C31.6114 5.6375 32.9864 5.90924 34.2101 6.45049ZM5.13006 13.1037V19.347H10.8919C11.9214 19.347 12.7252 19.2089 13.2964 18.9349C14.3372 18.4226 14.8565 17.4515 14.8565 16.0126C14.8565 14.792 14.3553 13.9567 13.3461 13.5001C12.7816 13.2462 11.9892 13.1126 10.9732 13.1037H5.13006ZM5.13006 4.06497V9.23026H10.9009C11.9282 9.23026 12.7658 9.03648 13.4116 8.64891C14.0528 8.26135 14.3756 7.57531 14.3756 6.59526C14.3756 5.50162 13.9511 4.78219 13.1022 4.43026C12.3662 4.18748 11.4315 4.06497 10.2958 4.06497H5.13006ZM18.0174 2.49467C18.7421 3.4903 19.1056 4.67973 19.1056 6.06738C19.1056 7.49513 18.7422 8.64668 18.0084 9.51536C17.5975 10.0009 16.9946 10.4464 16.1976 10.8473C17.4078 11.2839 18.3199 11.9722 18.9408 12.9143C19.5549 13.8543 19.8642 14.9992 19.8642 16.3445C19.8642 17.7322 19.512 18.9773 18.8054 20.0776C18.3583 20.8059 17.7984 21.4207 17.1256 21.9196C16.3692 22.4921 15.4774 22.8819 14.4456 23.0957C13.4138 23.3073 12.2985 23.4097 11.0928 23.4097H0.400024V0H11.8672C14.7617 0.04232 16.8095 0.873134 18.0174 2.49467Z" fill="white"/>
</svg>
