<svg width="27" height="24" viewBox="0 0 27 24" fill="none" xmlns="http://www.w3.org/2000/svg">
<g clip-path="url(#clip0_12_56)">
<path fill-rule="evenodd" clip-rule="evenodd" d="M26.4 24H20.5652V15.563C20.5652 13.3547 19.6526 11.8471 17.6455 11.8471C16.1104 11.8471 15.2567 12.8644 14.8593 13.8449C14.7103 14.1968 14.7336 14.6871 14.7336 15.1773V24H8.95317C8.95317 24 9.02767 9.05475 8.95317 7.69623H14.7336V10.255C15.0751 9.13621 16.9222 7.53948 19.8698 7.53948C23.5269 7.53948 26.4 9.88462 26.4 14.9345V24ZM3.10752 5.65692H3.07028C1.20762 5.65692 0 4.41057 0 2.83076C0 1.2202 1.24332 0 3.14323 0C5.04158 0 6.20884 1.21714 6.2461 2.82616C6.2461 4.40598 5.04158 5.65692 3.10752 5.65692ZM0.665882 7.69623H5.81148V24H0.665882V7.69623Z" fill="white"/>
</g>
<defs>
<clipPath id="clip0_12_56">
<rect width="26.4" height="24" fill="white"/>
</clipPath>
</defs>
</svg>
